<?xml version="1.0" standalone="no"?>
<!DOCTYPE svg PUBLIC "-//W3C//DTD SVG 20010904//EN"
 "http://www.w3.org/TR/2001/REC-SVG-20010904/DTD/svg10.dtd">
<svg version="1.0" xmlns="http://www.w3.org/2000/svg"
 width="1320.000000pt" height="1320.000000pt" viewBox="0 0 1320.000000 1320.000000"
 preserveAspectRatio="xMidYMid meet">

<g transform="translate(0.000000,1320.000000) scale(0.100000,-0.100000)"
fill="#e8e8e8" stroke="none">
<path d="M10485 11070 c-187 -5 -441 -11 -565 -14 -124 -3 -565 -10 -980 -16
-795 -10 -1706 -27 -1950 -35 -80 -2 -361 -7 -625 -10 -264 -3 -700 -10 -970
-16 -986 -19 -1596 -29 -1872 -29 -254 0 -283 -2 -283 -16 0 -9 374 -390 831
-848 l831 -831 216 0 c300 0 1414 15 1432 20 8 2 204 6 435 9 389 6 1125 18
1953 31 324 6 342 5 342 -12 2 -86 -2 -748 -4 -752 -2 -3 -6 -161 -10 -351 -3
-190 -8 -439 -11 -555 -3 -115 -7 -394 -10 -620 -3 -225 -8 -495 -11 -600 -15
-550 -24 -1016 -24 -1235 l0 -245 832 -832 c472 -473 840 -833 850 -833 17 0
18 20 20 283 0 155 2 287 3 292 1 6 5 244 9 530 3 286 11 709 16 940 12 551
19 904 25 1385 3 217 10 580 15 805 5 226 12 563 15 750 3 187 7 500 10 695 3
195 10 569 15 830 5 261 11 657 12 880 l3 405 -105 1 c-58 1 -258 -2 -445 -6z"/>
<path d="M7605 8260 c-181 -4 -510 -10 -730 -14 -220 -3 -535 -8 -700 -11
-165 -3 -491 -8 -725 -11 -234 -3 -436 -7 -449 -9 -13 -2 -371 -9 -795 -15
-682 -9 -985 -15 -1876 -35 -124 -3 -594 -10 -1045 -16 -451 -6 -828 -13 -838
-15 -12 -4 -15 -10 -9 -21 22 -38 1625 -1642 1657 -1657 32 -16 88 -16 698 -7
697 11 1084 18 1432 26 116 3 503 9 860 15 358 5 715 12 795 15 80 3 246 5
370 6 l224 0 -2 -178 c-2 -98 -7 -369 -12 -603 -6 -234 -14 -733 -20 -1110 -6
-377 -15 -860 -20 -1075 -5 -214 -12 -615 -16 -890 l-7 -500 41 -50 c22 -27
395 -404 829 -837 559 -558 796 -788 811 -788 22 0 22 1 23 223 0 122 2 236 4
252 2 17 6 226 9 465 10 682 25 1534 31 1775 3 121 7 391 10 600 10 731 15
1072 20 1280 9 388 15 716 25 1355 6 349 15 856 20 1127 6 270 10 541 10 602
l0 111 -147 -2 c-82 -1 -296 -5 -478 -8z"/>
</g>
</svg>
