<?xml version="1.0" standalone="no"?>
<!DOCTYPE svg PUBLIC "-//W3C//DTD SVG 20010904//EN"
 "http://www.w3.org/TR/2001/REC-SVG-20010904/DTD/svg10.dtd">
<svg version="1.0" xmlns="http://www.w3.org/2000/svg"
 width="1308.000000pt" height="1320.000000pt" viewBox="0 0 1308.000000 1320.000000"
 preserveAspectRatio="xMidYMid meet">

<g transform="translate(0.000000,1320.000000) scale(0.100000,-0.100000)"
fill="#e8e8e8" stroke="none">
<path d="M6849 12306 c-2 -2 -319 -6 -703 -9 -484 -4 -702 -9 -710 -17 -6 -6
-12 -60 -14 -123 -2 -62 -7 -115 -10 -118 -4 -4 -259 -10 -567 -13 -308 -4
-592 -9 -631 -12 -70 -6 -74 -8 -155 -73 -46 -37 -113 -88 -149 -113 -36 -26
-85 -64 -110 -86 l-45 -40 -6 -208 c-6 -176 -12 -1131 -10 -1360 l1 -71 173
-130 c94 -72 185 -138 200 -148 27 -17 69 -18 794 -14 l765 4 -2 -405 c-1
-223 -3 -427 -5 -455 -6 -85 -6 -1077 0 -1083 3 -3 40 -9 83 -12 l77 -5 -3
-510 c-2 -280 -5 -517 -8 -526 -4 -15 -48 -17 -427 -23 -866 -12 -2825 -29
-3482 -30 l-680 -1 -3 30 c-2 16 -9 33 -15 37 -6 3 -79 7 -163 7 -137 2 -154
0 -162 -16 -12 -22 -26 -979 -15 -986 4 -2 82 -2 172 2 l165 6 8 31 c4 18 15
34 22 37 24 9 438 16 1271 22 429 3 1194 10 1700 15 957 10 1516 14 1574 11
l33 -1 -6 -332 c-3 -183 -8 -686 -11 -1118 -3 -432 -8 -834 -10 -895 -3 -60
-7 -540 -11 -1066 -3 -525 -9 -1002 -13 -1060 l-6 -104 -31 -14 c-39 -17 -44
-45 -44 -228 l0 -125 483 4 c265 2 490 7 500 12 15 7 17 26 17 172 0 159 -1
164 -21 164 -11 0 -29 5 -41 11 -20 11 -20 14 -14 762 4 414 11 1060 16 1437
5 377 12 1043 16 1480 3 437 7 820 9 850 l2 55 94 6 c52 4 291 7 532 8 l437 1
0 -79 0 -79 32 -7 c18 -4 206 -5 418 -1 1126 18 1497 19 1501 5 3 -8 1 -257
-3 -554 -5 -297 -7 -639 -6 -761 l3 -221 50 -71 c153 -215 230 -310 259 -316
37 -8 647 -8 1191 0 l430 7 38 41 c22 23 68 83 103 133 36 51 83 113 104 139
78 89 73 58 78 559 2 248 7 527 10 620 l7 170 119 6 c76 5 121 11 126 19 4 7
11 321 14 699 4 377 7 761 9 854 l2 167 -133 0 -132 0 2 638 3 637 -70 91
c-38 50 -104 134 -145 188 l-75 97 -812 -3 -812 -3 -32 -30 c-28 -27 -187
-230 -263 -337 -37 -51 -36 -32 -44 -895 -4 -369 -11 -675 -15 -680 -5 -4
-435 -11 -955 -16 -562 -4 -956 -11 -969 -17 -19 -8 -22 -18 -25 -82 l-3 -73
-55 -6 c-42 -5 -731 -12 -974 -9 l-39 0 8 503 c4 276 8 513 9 527 1 24 5 25
82 34 l81 8 7 92 c3 50 9 485 12 966 4 481 9 878 13 882 4 5 290 11 636 14
347 3 694 9 772 13 140 8 142 8 187 42 25 19 99 74 166 123 180 132 174 124
181 258 3 62 6 327 7 588 1 261 5 552 8 646 4 95 3 198 -1 230 -8 70 -10 72
-221 230 -186 139 -186 139 -439 130 -137 -4 -718 -8 -975 -6 l-25 0 3 124 4
124 -29 6 c-30 5 -278 7 -284 2z"/>
</g>
</svg>
