<?xml version="1.0" standalone="no"?>
<!DOCTYPE svg PUBLIC "-//W3C//DTD SVG 20010904//EN"
 "http://www.w3.org/TR/2001/REC-SVG-20010904/DTD/svg10.dtd">
<svg version="1.0" xmlns="http://www.w3.org/2000/svg"
 width="1316.000000pt" height="1308.000000pt" viewBox="0 0 1316.000000 1308.000000"
 preserveAspectRatio="xMidYMid meet">

<g transform="translate(0.000000,1308.000000) scale(0.100000,-0.100000)"
fill="#e8e8e8" stroke="none">
<path d="M3982 11872 c1 -11 474 -493 1051 -1072 576 -579 1047 -1059 1047
-1068 0 -9 -528 -544 -1172 -1189 l-1173 -1173 1530 -1532 c842 -843 1671
-1674 1842 -1846 242 -244 315 -313 330 -308 10 3 538 525 1173 1160 635 635
1164 1159 1176 1165 19 9 124 -93 1077 -1046 632 -633 1060 -1054 1068 -1051
17 6 17 -92 2 1318 -7 608 -15 1362 -18 1675 -3 314 -10 948 -15 1410 -5 462
-15 1434 -21 2160 -6 726 -12 1321 -13 1322 -8 10 -415 15 -3211 43 -550 6
-1387 14 -1860 20 -473 5 -1121 12 -1440 15 -319 3 -759 8 -978 11 -396 6
-399 6 -395 -14z"/>
<path d="M3215 6844 c-23 -9 -880 -875 -880 -889 0 -13 3671 -3695 3684 -3695
14 0 891 885 891 899 0 14 -3668 3692 -3680 3690 -3 0 -10 -3 -15 -5z"/>
<path d="M1326 4961 c-346 -346 -437 -442 -432 -457 8 -26 3671 -3687 3685
-3683 19 7 891 882 891 895 0 19 -3671 3684 -3689 3684 -9 0 -213 -197 -455
-439z"/>
</g>
</svg>
