<?xml version="1.0" standalone="no"?>
<!DOCTYPE svg PUBLIC "-//W3C//DTD SVG 20010904//EN"
 "http://www.w3.org/TR/2001/REC-SVG-20010904/DTD/svg10.dtd">
<svg version="1.0" xmlns="http://www.w3.org/2000/svg"
 width="1428.000000pt" height="1428.000000pt" viewBox="0 0 1428.000000 1428.000000"
 preserveAspectRatio="xMidYMid meet">

<g transform="translate(0.000000,1428.000000) scale(0.100000,-0.100000)"
fill="#e8e8e8" stroke="none">
<path d="M6705 12815 c-349 -36 -344 -35 -754 -115 -58 -11 -222 -54 -365 -95
-535 -156 -1048 -390 -1506 -688 -261 -170 -316 -211 -540 -397 -192 -159
-312 -270 -467 -430 -160 -165 -471 -540 -541 -650 -19 -30 -86 -131 -147
-225 -117 -178 -133 -204 -235 -400 -127 -242 -156 -302 -204 -420 -27 -66
-71 -173 -98 -238 -114 -276 -265 -863 -314 -1217 -84 -611 -71 -1328 35
-1870 10 -52 24 -124 31 -160 45 -234 197 -734 275 -905 8 -16 38 -91 68 -165
30 -74 83 -189 117 -255 34 -66 92 -176 128 -245 61 -118 117 -208 319 -511
115 -173 420 -542 600 -725 227 -232 473 -444 723 -624 114 -83 315 -216 369
-246 52 -29 68 -39 82 -51 8 -6 46 -28 84 -48 39 -21 95 -51 125 -68 106 -58
375 -188 455 -218 28 -11 59 -23 70 -28 351 -154 894 -301 1345 -365 339 -49
887 -70 1213 -48 164 11 181 18 190 75 4 29 41 176 113 447 14 52 34 127 44
165 10 39 59 223 110 410 127 468 152 566 146 572 -2 3 -53 -4 -113 -16 -329
-62 -486 -80 -768 -88 -676 -19 -1343 127 -1950 428 -218 109 -307 161 -485
283 -357 246 -682 552 -945 891 -16 21 -39 50 -51 64 -56 69 -268 399 -306
476 -8 17 -44 86 -80 155 -76 144 -206 464 -242 595 -13 50 -36 129 -50 176
-56 189 -107 497 -127 764 -16 219 -6 644 20 840 24 181 81 469 116 585 124
405 207 603 405 965 62 113 242 370 371 530 163 202 415 455 614 616 342 277
714 488 1180 671 156 61 550 161 800 203 303 51 822 57 1150 14 448 -59 962
-213 1310 -391 243 -125 259 -135 460 -267 327 -215 640 -494 897 -801 53 -63
111 -135 129 -160 81 -112 219 -321 254 -385 21 -38 46 -81 56 -95 91 -133
307 -658 355 -860 7 -30 26 -107 42 -170 39 -150 67 -305 93 -515 31 -246 31
-706 -1 -950 -41 -324 -93 -554 -190 -846 -137 -409 -370 -853 -605 -1149 -28
-36 -77 -99 -108 -140 -99 -131 -138 -175 -163 -185 -23 -9 -50 16 -407 373
-211 211 -390 382 -400 382 -10 0 -17 -8 -17 -18 0 -17 -36 -166 -78 -322 -11
-41 -41 -154 -66 -250 -26 -96 -55 -206 -66 -245 -11 -38 -40 -146 -64 -240
-25 -93 -58 -219 -74 -280 -17 -60 -51 -189 -77 -285 -61 -231 -93 -351 -115
-430 -11 -36 -42 -155 -71 -265 -29 -110 -61 -231 -72 -270 -10 -38 -25 -92
-32 -120 -7 -27 -25 -95 -40 -150 -46 -173 -66 -248 -85 -320 -10 -38 -32
-122 -49 -185 -36 -136 -38 -163 -13 -156 9 2 58 14 107 26 50 12 119 30 155
40 106 29 174 48 395 106 116 31 242 64 280 74 39 10 106 28 150 40 44 12 148
39 230 61 83 22 182 49 220 59 39 10 95 26 125 34 30 8 134 35 230 61 252 67
308 82 375 101 33 9 125 33 205 54 80 22 195 52 255 69 256 69 538 145 654
175 69 18 127 38 129 45 2 7 -143 159 -322 339 -326 327 -346 347 -346 368 0
7 35 50 78 96 176 193 360 425 489 618 198 298 444 761 557 1048 116 297 136
353 181 512 25 91 57 203 70 250 21 75 87 392 114 555 6 33 21 152 33 265 19
175 22 260 23 580 0 390 -10 563 -46 790 -10 69 -24 157 -30 195 -36 236 -165
743 -219 860 -5 11 -15 40 -21 65 -7 25 -16 50 -19 55 -4 6 -10 24 -14 40 -4
17 -13 44 -20 60 -37 87 -102 236 -121 280 -13 28 -33 73 -45 100 -53 118
-151 308 -162 313 -5 2 -8 7 -8 12 0 7 -97 182 -137 248 -57 91 -79 126 -89
136 -5 6 -43 61 -84 121 -217 324 -622 777 -925 1036 -186 158 -397 324 -477
374 -8 6 -62 41 -119 79 -209 139 -267 174 -424 258 -220 118 -346 180 -440
218 -44 17 -89 36 -100 41 -78 34 -306 121 -375 144 -340 107 -477 144 -725
191 -38 7 -119 22 -180 34 -236 45 -474 62 -895 65 -275 2 -434 -1 -525 -10z"/>
<path d="M4786 8595 c-8 -28 -7 -2640 0 -2659 6 -15 226 -16 2538 -16 1392 0
2541 3 2554 6 l22 6 0 649 0 649 -1897 2 -1898 3 -3 683 c-2 533 -5 684 -15
687 -6 3 -301 6 -654 7 -635 3 -642 3 -647 -17z"/>
</g>
</svg>
