<?xml version="1.0" standalone="no"?>
<!DOCTYPE svg PUBLIC "-//W3C//DTD SVG 20010904//EN"
 "http://www.w3.org/TR/2001/REC-SVG-20010904/DTD/svg10.dtd">
<svg version="1.0" xmlns="http://www.w3.org/2000/svg"
 width="1312.000000pt" height="1308.000000pt" viewBox="0 0 1312.000000 1308.000000"
 preserveAspectRatio="xMidYMid meet">

<g transform="translate(0.000000,1308.000000) scale(0.100000,-0.100000)"
fill="#e8e8e8" stroke="none">
<path d="M1983 11127 c-513 -512 -939 -941 -947 -952 -15 -20 -6 -45 17 -45 7
0 666 -327 865 -429 89 -46 202 -100 222 -106 55 -17 67 -46 35 -85 -12 -14
-121 -206 -183 -320 -235 -435 -413 -942 -512 -1455 -69 -360 -84 -533 -85
-980 0 -519 25 -745 136 -1235 52 -231 162 -571 253 -787 31 -73 56 -135 56
-138 0 -7 177 -362 208 -417 12 -21 39 -66 60 -100 21 -35 63 -103 92 -153 30
-49 76 -120 103 -157 49 -69 57 -103 27 -119 -8 -5 -80 -40 -160 -78 -162 -76
-283 -134 -475 -226 -71 -34 -197 -95 -280 -134 -82 -40 -171 -83 -197 -97
-26 -13 -54 -24 -61 -24 -22 0 -49 -37 -43 -57 7 -22 1908 -1923 1923 -1923
12 0 43 33 43 45 0 5 20 50 44 100 24 49 60 126 81 170 104 219 346 720 403
832 37 73 52 93 68 93 11 0 59 -27 107 -60 47 -33 88 -60 91 -60 3 0 28 -16
55 -35 26 -19 52 -35 57 -35 5 0 41 -21 79 -46 93 -60 475 -250 645 -320 957
-395 2051 -504 3050 -304 196 40 583 141 630 165 14 7 48 20 75 28 174 54 465
178 670 287 60 32 130 69 155 82 25 13 89 50 142 82 53 32 105 56 114 54 10
-2 28 -23 40 -48 13 -25 130 -261 260 -525 131 -264 248 -497 261 -517 13 -21
23 -44 23 -53 0 -8 9 -15 20 -15 25 0 1900 1871 1900 1897 0 14 -65 50 -278
154 -811 399 -841 414 -842 431 0 9 26 53 58 97 31 44 66 98 77 118 11 21 53
91 93 156 74 120 246 451 282 542 40 105 100 251 108 265 23 41 159 484 188
615 7 33 20 90 29 127 62 272 115 760 115 1068 0 503 -81 1086 -210 1500 -16
52 -39 127 -50 165 -23 77 -31 98 -121 330 -34 88 -66 164 -70 170 -5 5 -9 17
-9 27 0 10 -4 18 -10 18 -5 0 -10 6 -10 13 0 22 -172 370 -191 387 -3 3 -26
43 -52 90 -55 99 -81 143 -121 202 -78 115 -79 117 -66 133 7 9 36 26 64 39
81 38 248 117 416 198 352 171 451 218 485 232 25 11 35 21 35 38 0 17 -249
270 -961 981 -573 570 -967 956 -975 953 -7 -3 -27 -36 -45 -73 -17 -37 -65
-138 -107 -223 -174 -361 -306 -640 -322 -678 -12 -30 -17 -33 -42 -28 -15 3
-41 14 -56 24 -51 36 -187 118 -257 157 -38 21 -101 57 -140 79 -38 23 -126
68 -195 100 -69 33 -143 68 -165 78 -51 25 -327 137 -380 154 -22 7 -60 20
-85 29 -320 116 -837 226 -1250 267 -178 17 -769 17 -955 0 -251 -24 -670 -99
-885 -158 -128 -36 -440 -139 -495 -164 -33 -15 -78 -33 -100 -40 -22 -7 -44
-16 -50 -20 -5 -4 -37 -17 -70 -30 -187 -73 -800 -417 -875 -492 -27 -26 -47
-27 -68 -5 -20 22 -72 129 -72 147 0 6 -4 10 -10 10 -5 0 -10 7 -10 15 0 15
-19 55 -31 65 -3 3 -12 22 -20 43 -7 20 -17 37 -21 37 -4 0 -8 6 -8 13 0 18
-24 67 -32 67 -5 0 -8 6 -8 13 0 18 -24 67 -32 67 -5 0 -8 6 -8 13 0 18 -24
67 -32 67 -5 0 -8 7 -8 15 0 15 -19 55 -31 65 -3 3 -12 22 -20 43 -7 20 -17
37 -21 37 -4 0 -8 6 -8 13 0 18 -24 67 -32 67 -5 0 -8 6 -8 13 0 15 -62 141
-72 145 -5 2 -8 10 -8 18 0 14 -20 55 -31 64 -4 3 -10 20 -14 38 -4 20 -13 32
-23 32 -9 0 -437 -420 -949 -933z m4842 -427 c148 -10 271 -24 435 -51 227
-38 673 -170 890 -263 191 -83 434 -209 575 -300 50 -32 103 -66 118 -75 16
-9 57 -36 90 -61 75 -55 80 -74 38 -157 -17 -33 -31 -63 -31 -66 0 -2 -51
-110 -114 -238 -62 -129 -136 -281 -164 -339 -27 -58 -87 -181 -132 -275 -45
-93 -106 -219 -135 -280 -130 -274 -148 -310 -156 -313 -5 -2 -9 -12 -9 -23 0
-23 22 -24 58 -5 15 8 45 22 67 32 22 9 101 46 175 82 74 35 180 86 235 112
55 26 181 87 280 135 99 48 263 127 365 175 102 48 241 115 310 149 175 85
170 86 259 -49 171 -262 326 -545 386 -704 14 -37 34 -84 44 -105 55 -106 165
-479 221 -746 92 -440 98 -1045 14 -1505 -33 -183 -117 -510 -153 -595 -5 -11
-21 -56 -37 -100 -29 -84 -35 -99 -109 -264 -103 -228 -215 -420 -405 -692
-33 -47 -62 -94 -66 -103 -15 -39 -67 -20 -401 148 -445 223 -1105 551 -1151
570 -71 32 -75 45 71 -254 128 -264 578 -1163 593 -1184 8 -11 14 -36 13 -56
0 -33 -5 -38 -77 -84 -348 -223 -693 -381 -1067 -490 -706 -205 -1422 -217
-2150 -35 -134 33 -353 101 -447 138 -157 62 -173 69 -365 163 -154 76 -278
144 -388 215 -144 93 -296 198 -311 214 -19 21 -26 4 209 489 36 74 85 178
110 230 25 53 91 190 147 305 56 116 115 239 132 275 16 36 36 79 45 97 10 18
15 35 11 38 -5 5 -111 -44 -398 -183 -69 -34 -188 -91 -265 -128 -349 -166
-652 -312 -688 -331 -54 -28 -85 -11 -150 80 -70 99 -187 276 -187 283 0 3 -8
18 -19 32 -10 15 -33 54 -51 87 -88 163 -115 217 -151 298 -22 49 -48 107 -59
130 -11 22 -20 47 -20 54 0 7 -4 13 -10 13 -5 0 -10 10 -10 23 -1 12 -9 40
-20 62 -11 22 -19 45 -20 51 0 6 -8 33 -19 60 -50 131 -115 374 -152 569 -77
411 -89 944 -29 1345 50 342 158 735 269 985 50 112 71 156 122 257 52 104
142 260 240 416 33 54 33 54 74 47 22 -3 51 -13 65 -23 14 -9 63 -35 110 -58
139 -68 194 -95 220 -110 14 -7 70 -35 125 -61 55 -26 101 -51 103 -55 2 -4
20 -12 40 -19 20 -6 44 -17 52 -23 8 -7 40 -23 70 -36 30 -13 62 -30 71 -37 8
-7 31 -18 50 -25 19 -6 36 -14 39 -17 3 -3 50 -28 105 -54 55 -27 107 -53 115
-58 8 -5 31 -16 50 -25 19 -9 88 -42 153 -75 65 -32 123 -59 129 -59 16 0 2
52 -34 128 -17 37 -34 69 -38 72 -8 8 -651 1294 -650 1303 0 5 -7 15 -15 23
-18 19 -19 49 -2 64 20 18 253 182 310 219 299 193 734 391 1037 472 515 139
913 181 1415 149z"/>
</g>
</svg>
