<?xml version="1.0" standalone="no"?>
<!DOCTYPE svg PUBLIC "-//W3C//DTD SVG 20010904//EN"
 "http://www.w3.org/TR/2001/REC-SVG-20010904/DTD/svg10.dtd">
<svg version="1.0" xmlns="http://www.w3.org/2000/svg"
 width="1288.000000pt" height="1304.000000pt" viewBox="0 0 1288.000000 1304.000000"
 preserveAspectRatio="xMidYMid meet">

<g transform="translate(0.000000,1304.000000) scale(0.100000,-0.100000)"
fill="#e8e8e8" stroke="none">
<path d="M4720 12578 c-1 -22 -64 -917 -74 -1063 -8 -110 -22 -310 -31 -445
-9 -135 -19 -260 -23 -279 -8 -37 -2 -34 -222 -140 -80 -39 -163 -81 -185 -93
-22 -13 -76 -43 -120 -68 -44 -24 -109 -64 -145 -88 -35 -24 -75 -48 -88 -53
-31 -12 -74 7 -217 96 -60 37 -157 96 -215 130 -58 34 -154 92 -214 128 -60
37 -110 67 -112 67 -2 0 -52 30 -111 66 -60 37 -133 81 -163 99 -30 18 -172
103 -314 189 -143 86 -261 156 -263 156 -2 0 -46 27 -98 60 -52 33 -96 60 -99
60 -2 0 -42 23 -88 51 -88 55 -222 135 -353 213 -44 26 -143 86 -220 133 -77
47 -153 93 -170 101 -16 8 -44 25 -62 38 -17 13 -35 24 -38 24 -21 0 48 -137
141 -280 12 -19 42 -69 67 -110 80 -137 298 -494 318 -521 10 -15 19 -30 19
-32 0 -3 50 -88 112 -189 61 -101 129 -212 150 -248 22 -36 52 -85 67 -110 24
-38 226 -369 341 -560 90 -148 146 -239 169 -277 14 -23 46 -76 71 -118 25
-42 67 -111 94 -153 80 -127 81 -134 3 -237 -24 -33 -71 -109 -102 -170 -32
-60 -66 -122 -76 -136 -35 -50 -141 -273 -162 -340 -26 -82 33 -68 -462 -104
-198 -14 -533 -39 -745 -55 -212 -16 -431 -32 -488 -36 -68 -5 -102 -11 -102
-19 0 -13 88 -79 259 -195 61 -41 136 -93 165 -115 30 -22 129 -92 221 -155
92 -63 206 -142 253 -176 123 -86 282 -197 403 -281 57 -39 120 -87 139 -105
l36 -33 -9 -155 c-6 -106 -5 -242 4 -430 7 -151 13 -306 13 -344 l1 -70 -180
-122 c-171 -117 -233 -159 -436 -299 -111 -77 -437 -300 -599 -410 -187 -128
-309 -219 -310 -231 0 -6 77 -17 203 -28 111 -9 267 -24 347 -32 169 -18 440
-44 1065 -104 304 -29 282 -22 324 -105 19 -39 56 -108 81 -155 26 -47 64
-116 85 -155 21 -38 71 -122 112 -186 75 -120 84 -149 58 -187 -9 -12 -29 -45
-44 -74 -40 -75 -167 -293 -207 -355 -19 -29 -34 -54 -34 -57 0 -3 -29 -53
-208 -361 -42 -71 -107 -184 -145 -250 -38 -66 -95 -163 -126 -215 -32 -52
-95 -160 -141 -240 -46 -80 -110 -189 -142 -242 -32 -54 -58 -100 -58 -103 0
-3 -11 -22 -24 -43 -13 -20 -63 -104 -111 -187 -49 -82 -107 -182 -131 -221
-73 -123 -124 -223 -115 -228 5 -3 19 3 32 13 13 10 48 30 77 45 29 15 141 80
250 144 108 65 262 157 342 204 80 46 235 138 345 203 110 65 265 156 345 203
80 47 204 120 275 163 72 42 195 115 275 162 80 47 172 102 205 122 346 210
429 255 464 255 11 0 32 -10 48 -23 34 -28 229 -157 238 -157 3 0 56 -31 118
-68 61 -37 160 -92 219 -120 59 -29 110 -57 113 -62 3 -5 10 -49 15 -97 46
-444 63 -614 85 -843 15 -146 33 -328 41 -405 25 -237 43 -426 50 -523 10
-137 19 -136 129 25 28 40 113 165 190 278 77 112 154 226 172 252 17 26 40
59 50 73 11 14 80 114 154 223 157 232 350 513 398 581 l34 48 171 -8 c94 -4
323 -8 509 -8 l339 -1 24 -30 c14 -16 34 -46 45 -65 11 -19 64 -98 119 -175
55 -77 125 -176 155 -220 31 -44 89 -127 130 -185 40 -58 99 -141 129 -185 73
-105 204 -291 286 -405 36 -51 92 -130 125 -177 33 -48 70 -92 81 -100 21 -14
22 -13 28 94 16 263 60 895 81 1153 8 102 19 264 25 360 11 187 17 246 31 271
4 8 27 24 51 34 68 29 280 136 310 156 14 11 30 19 34 19 10 0 131 71 214 126
87 57 91 56 290 -68 76 -47 318 -192 455 -273 72 -42 162 -96 200 -120 39 -25
102 -63 140 -85 39 -23 102 -61 140 -85 39 -24 93 -57 120 -73 28 -15 73 -42
100 -59 105 -65 254 -155 345 -208 52 -31 102 -60 110 -65 69 -43 212 -129
290 -175 52 -31 142 -85 200 -120 58 -36 112 -68 120 -72 22 -10 130 -77 174
-107 42 -28 66 -33 66 -14 0 13 -63 122 -124 213 -43 65 -196 316 -196 322 0
2 -22 37 -50 78 -27 41 -50 76 -50 79 0 2 -22 41 -50 85 -27 44 -50 84 -50 89
0 4 -13 23 -28 42 -15 19 -39 53 -51 75 -39 66 -63 109 -75 130 -6 11 -32 53
-59 93 -26 40 -47 75 -47 78 0 3 -13 25 -30 49 -16 24 -30 46 -30 49 0 3 -26
48 -58 98 -32 51 -78 127 -103 168 -24 41 -67 112 -96 157 -29 44 -53 85 -53
89 0 4 -6 15 -14 23 -7 9 -24 36 -37 61 -13 25 -35 61 -50 80 -14 19 -40 61
-57 93 -33 60 -130 219 -214 348 -58 90 -73 133 -52 150 8 6 14 17 14 23 0 6
21 38 46 71 25 33 59 85 75 115 16 30 34 62 39 70 33 51 143 251 185 338 46
93 53 103 85 111 38 11 181 23 510 46 307 21 745 53 955 70 99 7 236 17 305
20 69 4 133 9 143 12 36 10 32 14 -239 198 -81 55 -190 132 -243 170 -53 39
-152 109 -221 155 -69 46 -143 97 -164 114 -71 56 -640 447 -702 482 -18 11
-19 24 -16 340 2 181 -1 400 -7 487 -6 86 -9 167 -6 180 4 15 43 48 113 95 59
39 143 97 187 128 44 30 118 81 165 113 47 32 132 91 190 131 58 40 150 104
205 142 55 37 132 90 170 116 149 103 332 227 365 248 59 38 90 65 90 77 0 7
-21 13 -53 15 -28 1 -207 19 -397 38 -190 19 -397 40 -460 45 -276 24 -887 88
-902 94 -10 4 -51 75 -92 159 -79 159 -106 209 -118 214 -5 2 -8 11 -8 21 0 9
-4 21 -9 27 -5 5 -24 36 -42 69 -28 52 -130 210 -173 270 -19 25 -4 102 25
133 10 12 19 23 19 26 0 2 32 60 72 128 39 67 105 182 146 253 41 72 82 141
92 155 9 14 28 45 42 70 14 25 36 63 48 85 13 22 28 49 34 60 6 11 24 39 39
62 15 24 27 45 27 48 0 3 41 73 90 156 50 82 90 152 90 154 0 3 16 29 35 59
19 30 35 57 35 60 0 3 28 52 61 108 76 127 149 252 199 338 20 36 69 119 107
185 39 66 79 136 90 155 10 19 31 54 46 78 15 23 37 62 49 85 12 23 46 80 76
127 60 96 107 189 99 197 -3 3 -25 -8 -49 -25 -24 -16 -61 -38 -83 -49 -46
-23 -190 -106 -285 -165 -36 -22 -85 -51 -110 -65 -25 -14 -103 -60 -175 -102
-71 -43 -168 -100 -213 -127 -109 -64 -415 -246 -504 -299 -9 -5 -67 -39 -128
-75 -62 -36 -127 -74 -146 -85 -110 -66 -203 -122 -231 -137 -48 -26 -301
-177 -438 -260 -65 -40 -142 -84 -170 -98 -28 -14 -61 -33 -75 -42 -35 -25
-59 -22 -118 15 -294 182 -441 266 -602 343 -178 85 -182 87 -191 109 -4 11
-19 139 -33 285 -48 485 -110 1113 -131 1310 -9 79 -18 147 -21 150 -3 2 -10
-3 -15 -12 -10 -18 -44 -68 -154 -228 -32 -47 -85 -123 -116 -170 -32 -47
-117 -170 -188 -275 -175 -254 -352 -515 -428 -628 -34 -50 -68 -100 -75 -111
-13 -18 -23 -18 -283 -6 -170 8 -354 10 -495 5 l-225 -7 -21 24 c-11 12 -47
64 -80 113 -32 50 -84 124 -115 165 -30 41 -93 131 -139 200 -46 69 -105 152
-130 185 -26 33 -91 125 -145 205 -54 80 -117 170 -140 200 -64 84 -180 251
-207 297 -32 55 -90 123 -105 123 -7 0 -13 -1 -13 -2z m1858 -2768 c189 -21
342 -52 527 -106 121 -36 285 -93 340 -119 17 -7 62 -27 100 -44 62 -26 102
-46 270 -136 295 -157 678 -486 944 -810 310 -379 551 -881 652 -1360 103
-483 90 -1056 -32 -1500 -36 -129 -67 -232 -79 -260 -5 -11 -30 -72 -55 -135
-87 -215 -235 -476 -369 -652 -186 -242 -450 -506 -651 -650 -513 -367 -1083
-568 -1686 -596 -511 -23 -978 58 -1429 250 -380 161 -761 419 -1061 718 -102
101 -195 211 -324 380 -66 86 -191 276 -215 325 -8 16 -18 32 -22 33 -4 2 -8
10 -8 18 0 13 -18 52 -30 64 -10 10 -89 177 -111 235 -12 33 -25 65 -29 70 -8
10 -50 132 -89 255 -47 150 -94 386 -116 584 -17 157 -20 467 -5 634 14 161
62 432 94 532 7 25 24 81 36 125 62 222 218 552 375 790 71 108 301 388 392
477 262 259 671 533 983 658 30 12 71 29 90 37 178 78 572 170 824 192 180 16
501 12 684 -9z"/>
</g>
</svg>
